<svg width="512" height="512" viewBox="0 0 135.467 135.467" xmlns:xlink="http://www.w3.org/1999/xlink"
    xmlns="http://www.w3.org/2000/svg">
    <defs>
        <linearGradient id="c">
            <stop style="stop-color:#bdad76;stop-opacity:1" offset="0" />
            <stop style="stop-color:#b7a55d;stop-opacity:1" offset="1" />
        </linearGradient>
        <linearGradient id="b">
            <stop style="stop-color:#4090c1;stop-opacity:.98039216" offset=".285" />
            <stop style="stop-color:#81b8d6;stop-opacity:.98039216" offset=".688" />
        </linearGradient>
        <linearGradient id="a">
            <stop style="stop-color:#4090c1;stop-opacity:.98039216" offset="0" />
            <stop style="stop-color:#81b8d6;stop-opacity:.98039216" offset="1" />
        </linearGradient>
        <linearGradient xlink:href="#a" id="d" x1="40.633" y1="129.313" x2="175.013" y2="129.313"
            gradientUnits="userSpaceOnUse" />
        <linearGradient xlink:href="#b" id="g" gradientUnits="userSpaceOnUse" x1="45.834" y1="167.957" x2="175.013"
            y2="129.313" />
        <linearGradient xlink:href="#a" id="f" gradientUnits="userSpaceOnUse" x1="40.633" y1="129.313" x2="175.013"
            y2="129.313" />
        <linearGradient xlink:href="#c" id="h" x1="60.13" y1="17.867" x2="111.926" y2="169.343"
            gradientUnits="userSpaceOnUse" spreadMethod="pad" />
        <clipPath clipPathUnits="userSpaceOnUse" id="l">
            <circle
                style="opacity:.419938;fill:#000;fill-opacity:.980392;stroke:none;stroke-width:.300477;stroke-linecap:square;stroke-linejoin:miter;stroke-miterlimit:25;stroke-dasharray:none;stroke-dashoffset:0;stroke-opacity:.980392;paint-order:markers fill stroke"
                cx="67.733" cy="67.733" r="67.733" />
        </clipPath>
        <clipPath clipPathUnits="userSpaceOnUse" id="k">
            <circle
                style="opacity:.419938;fill:#000;fill-opacity:.980392;stroke:none;stroke-width:.300477;stroke-linecap:square;stroke-linejoin:miter;stroke-miterlimit:25;stroke-dasharray:none;stroke-dashoffset:0;stroke-opacity:.980392;paint-order:markers fill stroke"
                cx="67.733" cy="67.733" r="67.733" />
        </clipPath>
        <clipPath clipPathUnits="userSpaceOnUse" id="j">
            <circle
                style="opacity:.419938;fill:#000;fill-opacity:.980392;stroke:none;stroke-width:.300477;stroke-linecap:square;stroke-linejoin:miter;stroke-miterlimit:25;stroke-dasharray:none;stroke-dashoffset:0;stroke-opacity:.980392;paint-order:markers fill stroke"
                cx="67.733" cy="67.733" r="67.733" />
        </clipPath>
        <clipPath clipPathUnits="userSpaceOnUse" id="i">
            <circle
                style="opacity:.419938;fill:#000;fill-opacity:.980392;stroke:none;stroke-width:.300477;stroke-linecap:square;stroke-linejoin:miter;stroke-miterlimit:25;stroke-dasharray:none;stroke-dashoffset:0;stroke-opacity:.980392;paint-order:markers fill stroke"
                cx="67.733" cy="67.733" r="67.733" />
        </clipPath>
        <clipPath clipPathUnits="userSpaceOnUse" id="e">
            <ellipse
                style="opacity:.419938;fill:#000;fill-opacity:.980392;stroke:none;stroke-width:.166084;stroke-linecap:square;stroke-linejoin:miter;stroke-miterlimit:25;stroke-dasharray:none;stroke-dashoffset:0;stroke-opacity:.980392;paint-order:markers fill stroke"
                cx="-132.286" cy="114.682" rx="32.578" ry="43.024" transform="rotate(-90)" />
        </clipPath>
    </defs>
    <g transform="matrix(0 1.57432 -2.07908 0 342.768 -112.812)"
        style="fill:url(#d);stroke:#81b8d6;stroke-opacity:.980392" clip-path="url(#e)">
        <g style="fill:url(#f);fill-opacity:.980392;stroke:#81b8d6;stroke-opacity:.980392">
            <path
                style="opacity:.98;fill:url(#g);stroke:#d681a2;stroke-width:0;stroke-linecap:square;stroke-miterlimit:25;paint-order:markers fill stroke;stroke-opacity:0"
                d="M35.49 99.708h134.381v65.157H35.491Z" stroke="none" />
        </g>
    </g>
    <path
        d="M34.192 81.424a106.994 44.305 0 0 0-13.966.38 106.994 44.305 0 0 0-13.727 1.13 106.994 44.305 0 0 0-13.253 1.863 106.994 44.305 0 0 0-12.552 2.563 106.994 44.305 0 0 0-11.637 3.219A106.994 44.305 0 0 0-41.465 94.4a106.994 44.305 0 0 0-9.229 4.357 106.994 44.305 0 0 0-7.775 4.818 106.994 44.305 0 0 0-6.19 5.198 106.994 44.305 0 0 0-4.498 5.488 106.994 44.305 0 0 0-2.73 5.684 106.994 44.305 0 0 0-.916 5.782 106.994 44.305 0 0 0 .916 5.784 106.994 44.305 0 0 0 2.73 5.684 106.994 44.305 0 0 0 4.499 5.487 106.994 44.305 0 0 0 6.19 5.198 106.994 44.305 0 0 0 7.774 4.818 106.994 44.305 0 0 0 9.23 4.358 106.994 44.305 0 0 0 10.521 3.821 106.994 44.305 0 0 0 11.637 3.22 106.994 44.305 0 0 0 12.552 2.562 106.994 44.305 0 0 0 13.253 1.864 106.994 44.305 0 0 0 13.727 1.13 106.994 44.305 0 0 0 13.966.38 106.994 44.305 0 0 0 13.964-.38 106.994 44.305 0 0 0 13.727-1.13 106.994 44.305 0 0 0 13.253-1.864 106.994 44.305 0 0 0 12.552-2.562 106.994 44.305 0 0 0 11.637-3.22 106.994 44.305 0 0 0 10.523-3.82 106.994 44.305 0 0 0 9.227-4.359 106.994 44.305 0 0 0 7.776-4.818 106.994 44.305 0 0 0 6.19-5.198 106.994 44.305 0 0 0 4.498-5.487 106.994 44.305 0 0 0 2.732-5.684 106.994 44.305 0 0 0 .915-5.784 106.994 44.305 0 0 0-.102-1.932 106.994 44.305 0 0 0-.305-1.93 106.994 44.305 0 0 0-.508-1.92 106.994 44.305 0 0 0-.71-1.911 106.994 44.305 0 0 0-.912-1.895 106.994 44.305 0 0 0-1.11-1.878 106.994 44.305 0 0 0-1.305-1.855 106.994 44.305 0 0 0-1.501-1.832 106.994 44.305 0 0 0-1.691-1.8 106.994 44.305 0 0 0-1.88-1.77 106.994 44.305 0 0 0-2.066-1.734 106.994 44.305 0 0 0-2.245-1.695 106.994 44.305 0 0 0-2.42-1.652 106.994 44.305 0 0 0-2.595-1.607 106.994 44.305 0 0 0-2.76-1.56 106.994 44.305 0 0 0-2.923-1.506 106.994 44.305 0 0 0-3.077-1.454 106.994 44.305 0 0 0-3.228-1.396 106.994 44.305 0 0 0-3.373-1.338 106.994 44.305 0 0 0-3.509-1.274 106.994 44.305 0 0 0-3.641-1.21 106.994 44.305 0 0 0-3.764-1.143 106.994 44.305 0 0 0-3.881-1.073 106.994 44.305 0 0 0-3.992-1.003 106.994 44.305 0 0 0-4.092-.93 106.994 44.305 0 0 0-4.187-.856 106.994 44.305 0 0 0-4.273-.777 106.994 44.305 0 0 0-4.35-.702 106.994 44.305 0 0 0-4.42-.62 106.994 44.305 0 0 0-4.483-.542 106.994 44.305 0 0 0-4.533-.46 106.994 44.305 0 0 0-4.58-.376 106.994 44.305 0 0 0-4.614-.294 106.994 44.305 0 0 0-4.64-.21 106.994 44.305 0 0 0-4.657-.127 106.994 44.305 0 0 0-4.667-.042z"
        style="fill:url(#h);stroke:purple;stroke-width:0;stroke-linecap:square;stroke-miterlimit:25;paint-order:markers fill stroke"
        clip-path="url(#i)" />
    <path
        d="M146.649 83.82a91.02 52.442 0 0 0-11.88.449 91.02 52.442 0 0 0-11.678 1.338 91.02 52.442 0 0 0-11.275 2.205 91.02 52.442 0 0 0-10.678 3.034 91.02 52.442 0 0 0-9.9 3.81 91.02 52.442 0 0 0-8.95 4.524 91.02 52.442 0 0 0-7.851 5.157 91.02 52.442 0 0 0-6.614 5.704 91.02 52.442 0 0 0-5.266 6.153 91.02 52.442 0 0 0-3.827 6.496 91.02 52.442 0 0 0-2.323 6.728 91.02 52.442 0 0 0-.778 6.844 91.02 52.442 0 0 0 .778 6.846 91.02 52.442 0 0 0 2.323 6.728 91.02 52.442 0 0 0 3.827 6.495 91.02 52.442 0 0 0 5.266 6.152 91.02 52.442 0 0 0 6.614 5.704 91.02 52.442 0 0 0 7.85 5.158 91.02 52.442 0 0 0 8.952 4.523 91.02 52.442 0 0 0 9.9 3.811 91.02 52.442 0 0 0 10.677 3.033 91.02 52.442 0 0 0 11.275 2.206 91.02 52.442 0 0 0 11.677 1.337 91.02 52.442 0 0 0 11.881.45 91.02 52.442 0 0 0 11.88-.45 91.02 52.442 0 0 0 11.677-1.337 91.02 52.442 0 0 0 11.275-2.206 91.02 52.442 0 0 0 10.678-3.033 91.02 52.442 0 0 0 9.9-3.811 91.02 52.442 0 0 0 8.951-4.523 91.02 52.442 0 0 0 7.85-5.158 91.02 52.442 0 0 0 6.615-5.704 91.02 52.442 0 0 0 5.266-6.152 91.02 52.442 0 0 0 3.826-6.495 91.02 52.442 0 0 0 2.324-6.728 91.02 52.442 0 0 0 .778-6.846 91.02 52.442 0 0 0-.086-2.287 91.02 52.442 0 0 0-.26-2.284 91.02 52.442 0 0 0-.432-2.273 91.02 52.442 0 0 0-.604-2.263 91.02 52.442 0 0 0-.775-2.243 91.02 52.442 0 0 0-.944-2.222 91.02 52.442 0 0 0-1.111-2.197 91.02 52.442 0 0 0-1.277-2.168 91.02 52.442 0 0 0-1.439-2.131 91.02 52.442 0 0 0-1.599-2.094 91.02 52.442 0 0 0-1.757-2.052 91.02 52.442 0 0 0-1.91-2.007 91.02 52.442 0 0 0-2.06-1.955 91.02 52.442 0 0 0-2.206-1.903 91.02 52.442 0 0 0-2.349-1.846 91.02 52.442 0 0 0-2.486-1.783 91.02 52.442 0 0 0-2.618-1.72 91.02 52.442 0 0 0-2.746-1.654 91.02 52.442 0 0 0-2.869-1.583 91.02 52.442 0 0 0-2.985-1.508 91.02 52.442 0 0 0-3.098-1.433 91.02 52.442 0 0 0-3.201-1.353 91.02 52.442 0 0 0-3.303-1.27 91.02 52.442 0 0 0-3.395-1.187 91.02 52.442 0 0 0-3.481-1.101 91.02 52.442 0 0 0-3.562-1.012 91.02 52.442 0 0 0-3.635-.92 91.02 52.442 0 0 0-3.7-.83 91.02 52.442 0 0 0-3.761-.736 91.02 52.442 0 0 0-3.814-.64 91.02 52.442 0 0 0-3.856-.544 91.02 52.442 0 0 0-3.896-.446 91.02 52.442 0 0 0-3.925-.348 91.02 52.442 0 0 0-3.948-.249 91.02 52.442 0 0 0-3.961-.15 91.02 52.442 0 0 0-3.97-.05z"
        style="fill:#b7a55d;stroke:purple;stroke-width:0;stroke-linecap:square;stroke-miterlimit:25;paint-order:markers fill stroke;fill-opacity:1"
        clip-path="url(#j)" />
    <path
        d="m36.747 93.262-4.99-12.824H15.336l-4.933 12.824h-5.28l16.19-41.605h4.7l16.13 41.605Zm-11.199-30q-.174-.464-.58-1.682-.406-1.219-.812-2.496-.349-1.334-.58-2.03-.407 1.798-.93 3.54-.521 1.682-.87 2.668l-4.7 12.534H30.19ZM61.64 61.58q.87 0 1.857.116 1.045.058 1.799.232l-.638 4.7q-.755-.174-1.683-.29-.87-.116-1.683-.116-2.379 0-4.468 1.334-2.089 1.277-3.365 3.656-1.219 2.32-1.219 5.454v16.596h-5.106V62.16h4.178l.58 5.686h.232q1.509-2.553 3.888-4.41 2.379-1.856 5.628-1.856zm35.338 16.073q0 7.717-3.946 11.953-3.887 4.236-10.56 4.236-4.12 0-7.37-1.857-3.191-1.915-5.048-5.512-1.857-3.656-1.857-8.82 0-7.718 3.888-11.896 3.888-4.177 10.56-4.177 4.237 0 7.428 1.914 3.25 1.857 5.048 5.455 1.857 3.54 1.857 8.704zm-23.5 0q0 5.512 2.147 8.762 2.205 3.191 6.963 3.191 4.7 0 6.905-3.191 2.205-3.25 2.205-8.762 0-5.513-2.205-8.646-2.205-3.134-6.963-3.134t-6.905 3.134q-2.147 3.133-2.147 8.646z"
        clip-path="url(#k)"
        style="font-size:40px;line-height:1.25;font-family:Tie;-inkscape-font-specification:Tie;letter-spacing:0;word-spacing:0;white-space:pre;fill:#3781a8;stroke-width:1.45065"
        aria-label="Aro" />
    <path
        d="M81.138 92.638c0 7.025 4.66 11.616 11.376 11.616 3.872 0 7.265-1.576 9.355-4.352l-.617-.616c-2.536 2.433-4.797 3.46-7.641 3.46-3.838 0-8.498-2.193-8.498-10.554 0-6.202 3.186-10.211 8.155-10.211 4.42 0 6.408 3.118 7.367 6.374h.789l-.309-7.745h-.72c-.205.72-.753 1.131-1.439 1.131-1.233 0-2.604-1.13-6.339-1.13-6.408 0-11.48 4.797-11.48 12.027zm22.958 0c0 7.025 4.66 11.616 11.377 11.616 3.872 0 7.264-1.576 9.355-4.352l-.617-.616c-2.536 2.433-4.797 3.46-7.642 3.46-3.837 0-8.498-2.193-8.498-10.554 0-6.202 3.187-10.211 8.156-10.211 4.42 0 6.408 3.118 7.367 6.374h.788l-.308-7.745h-.72c-.205.72-.754 1.131-1.439 1.131-1.234 0-2.604-1.13-6.34-1.13-6.407 0-11.479 4.797-11.479 12.027z"
        clip-path="url(#l)"
        style="font-size:40px;line-height:1.25;font-family:FreeSerif;-inkscape-font-specification:'FreeSerif, Normal';letter-spacing:0;word-spacing:0;white-space:pre;fill:#222833;stroke-width:.859169"
        aria-label="CC" />
</svg>