<?xml version="1.0" encoding="utf-8"?>
<!-- Generator: Adobe Illustrator 24.1.1, SVG Export Plug-In . SVG Version: 6.00 Build 0)  -->
<svg version="1.1" id="Layer_1" xmlns="http://www.w3.org/2000/svg" xmlns:xlink="http://www.w3.org/1999/xlink" x="0px" y="0px"
	 viewBox="0 0 512 512" style="enable-background:new 0 0 512 512;" xml:space="preserve">
<g id="XMLID_2_">
	<path id="XMLID_6_" style="fill:#555" d="M426.4,266.2V107.1c0-5.6-1.9-11.2-6.5-14.9c-4.7-4.7-9.3-6.5-14.9-6.5H245.8
		c-9.3,0-15.8,4.7-19.5,13c-3.7,9.3-1.9,16.8,4.7,23.3l48.4,48.4L100.5,347.2c-4.7,4.7-6.5,9.3-6.5,14.9c0,5.6,1.9,11.2,6.5,14.9
		l34.4,34.4c4.7,4.7,9.3,6.5,14.9,6.5c5.6,0,11.2-1.9,14.9-6.5l177.8-177.8l48.4,48.4c3.7,4.7,9.3,6.5,14.9,6.5
		c2.8,0,5.6-0.9,8.4-1.9C422.6,283,426.4,275.5,426.4,266.2z M512,95.9v320.2c0,26.1-9.3,49.3-27.9,68c-18.6,18.6-41,27.9-68,27.9
		H95.9c-26.1,0-49.3-9.3-68-27.9C9.3,465.5,0,443.1,0,416.1V95.9c0-26.1,9.3-49.3,27.9-68S68.9,0,95.9,0h320.2
		c26.1,0,49.3,9.3,68,27.9C502.7,46.5,512,69.8,512,95.9z"/>
</g>
</svg>